<?xml version="1.0" encoding="UTF-8" standalone="no"?>
<!-- Created with Inkscape (http://www.inkscape.org/) -->

<svg
   width="57.000004mm"
   height="57mm"
   viewBox="0 0 57.000005 57"
   version="1.1"
   id="svg5"
   xml:space="preserve"
   inkscape:version="1.2.1 (9c6d41e, 2022-07-14)"
   sodipodi:docname="Java.svg"
   xmlns:inkscape="http://www.inkscape.org/namespaces/inkscape"
   xmlns:sodipodi="http://sodipodi.sourceforge.net/DTD/sodipodi-0.dtd"
   xmlns:xlink="http://www.w3.org/1999/xlink"
   xmlns="http://www.w3.org/2000/svg"
   xmlns:svg="http://www.w3.org/2000/svg"><sodipodi:namedview
     id="namedview7"
     pagecolor="#ffffff"
     bordercolor="#111111"
     borderopacity="1"
     inkscape:showpageshadow="0"
     inkscape:pageopacity="0"
     inkscape:pagecheckerboard="1"
     inkscape:deskcolor="#d1d1d1"
     inkscape:document-units="mm"
     showgrid="false"
     inkscape:zoom="0.5375338"
     inkscape:cx="24.184526"
     inkscape:cy="76.274273"
     inkscape:window-width="1645"
     inkscape:window-height="754"
     inkscape:window-x="0"
     inkscape:window-y="25"
     inkscape:window-maximized="0"
     inkscape:current-layer="layer1" /><defs
     id="defs2"><linearGradient
       id="linearGradient2795"><stop
         style="stop-color:#b8b8b8;stop-opacity:0.49803922;"
         offset="0"
         id="stop2797" /><stop
         style="stop-color:#7f7f7f;stop-opacity:0;"
         offset="1"
         id="stop2799" /></linearGradient><linearGradient
       id="linearGradient2787"><stop
         style="stop-color:#7f7f7f;stop-opacity:0.5;"
         offset="0"
         id="stop2789" /><stop
         style="stop-color:#7f7f7f;stop-opacity:0;"
         offset="1"
         id="stop2791" /></linearGradient><linearGradient
       id="linearGradient3676"><stop
         style="stop-color:#b2b2b2;stop-opacity:0.5;"
         offset="0"
         id="stop3678" /><stop
         style="stop-color:#b3b3b3;stop-opacity:0;"
         offset="1"
         id="stop3680" /></linearGradient><linearGradient
       id="linearGradient3236"><stop
         style="stop-color:#f4f4f4;stop-opacity:1"
         offset="0"
         id="stop3244" /><stop
         style="stop-color:white;stop-opacity:1"
         offset="1"
         id="stop3240" /></linearGradient><linearGradient
       id="linearGradient4671"><stop
         style="stop-color:#ffd43b;stop-opacity:1;"
         offset="0"
         id="stop4673" /><stop
         style="stop-color:#ffe873;stop-opacity:1"
         offset="1"
         id="stop4675" /></linearGradient><linearGradient
       id="linearGradient4689"><stop
         style="stop-color:#5a9fd4;stop-opacity:1;"
         offset="0"
         id="stop4691" /><stop
         style="stop-color:#306998;stop-opacity:1;"
         offset="1"
         id="stop4693" /></linearGradient><linearGradient
       x1="224.23996"
       y1="144.75717"
       x2="-65.308502"
       y2="144.75717"
       id="linearGradient2987"
       xlink:href="#linearGradient4671"
       gradientUnits="userSpaceOnUse"
       gradientTransform="translate(100.2702,99.61116)" /><linearGradient
       x1="172.94208"
       y1="77.475983"
       x2="26.670298"
       y2="76.313133"
       id="linearGradient2990"
       xlink:href="#linearGradient4689"
       gradientUnits="userSpaceOnUse"
       gradientTransform="translate(100.2702,99.61116)" /><linearGradient
       inkscape:collect="always"
       xlink:href="#linearGradient4671"
       id="linearGradient2255"
       gradientUnits="userSpaceOnUse"
       gradientTransform="matrix(0.562541,0,0,0.567972,-11.5974,-7.60954)"
       x1="224.23996"
       y1="144.75717"
       x2="-65.308502"
       y2="144.75717" /><linearGradient
       inkscape:collect="always"
       xlink:href="#linearGradient4689"
       id="linearGradient2258"
       gradientUnits="userSpaceOnUse"
       gradientTransform="matrix(0.562541,0,0,0.567972,-11.5974,-7.60954)"
       x1="172.94208"
       y1="76.176224"
       x2="26.670298"
       y2="76.313133" /><radialGradient
       inkscape:collect="always"
       xlink:href="#linearGradient2795"
       id="radialGradient2801"
       cx="61.518883"
       cy="132.28575"
       fx="61.518883"
       fy="132.28575"
       r="29.036913"
       gradientTransform="matrix(1,0,0,0.177966,0,108.7434)"
       gradientUnits="userSpaceOnUse" /><radialGradient
       inkscape:collect="always"
       xlink:href="#linearGradient2795"
       id="radialGradient2801-6"
       cx="61.518883"
       cy="132.28575"
       fx="61.518883"
       fy="132.28575"
       r="29.036913"
       gradientTransform="matrix(1,0,0,0.177966,0,108.7434)"
       gradientUnits="userSpaceOnUse" /><linearGradient
       id="vlpc"
       x1="151"
       x2="112"
       y1="192.39999"
       y2="137.3"
       gradientTransform="matrix(0.14882812,0,0,0.15028333,2.7990844,134.07449)"
       gradientUnits="userSpaceOnUse"><stop
         style="stop-color:#ffd43b"
         offset="0"
         id="stop761" /><stop
         style="stop-color:#ffe873"
         offset="1"
         id="stop763" /></linearGradient><linearGradient
       id="vlpb"
       x1="26.65"
       x2="135.7"
       y1="20.6"
       y2="114.4"
       gradientTransform="matrix(0.14882812,0,0,0.15028333,2.7990844,134.07449)"
       gradientUnits="userSpaceOnUse"><stop
         style="stop-color:#5a9fd4"
         offset="0"
         id="stop766" /><stop
         style="stop-color:#306998"
         offset="1"
         id="stop768" /></linearGradient><radialGradient
       id="vlpa"
       cx="61.52"
       cy="132.3"
       r="29.040001"
       gradientTransform="matrix(0,-0.06348301,0.2791094,1.0032201e-7,-15.372988,174.85862)"
       gradientUnits="userSpaceOnUse"><stop
         style="stop-color:#b8b8b8;stop-opacity:.498"
         offset="0"
         id="stop771" /><stop
         style="stop-color:#7f7f7f;stop-opacity:0"
         offset="1"
         id="stop773" /></radialGradient><radialGradient
       inkscape:collect="always"
       xlink:href="#linearGradient2795"
       id="radialGradient2801-8"
       cx="61.518883"
       cy="132.28575"
       fx="61.518883"
       fy="132.28575"
       r="29.036913"
       gradientTransform="matrix(1,0,0,0.177966,0,108.7434)"
       gradientUnits="userSpaceOnUse" /><radialGradient
       inkscape:collect="always"
       xlink:href="#linearGradient2795"
       id="radialGradient2801-6-4"
       cx="61.518883"
       cy="132.28575"
       fx="61.518883"
       fy="132.28575"
       r="29.036913"
       gradientTransform="matrix(1,0,0,0.177966,0,108.7434)"
       gradientUnits="userSpaceOnUse" /><radialGradient
       id="vlpa-7"
       cx="61.52"
       cy="132.3"
       r="29.040001"
       gradientTransform="matrix(0,-0.06348301,0.2791094,1.0032201e-7,-15.372988,174.85862)"
       gradientUnits="userSpaceOnUse"><stop
         style="stop-color:#b8b8b8;stop-opacity:.498"
         offset="0"
         id="stop771-8" /><stop
         style="stop-color:#7f7f7f;stop-opacity:0"
         offset="1"
         id="stop773-7" /></radialGradient></defs><g
     inkscape:label="Layer 1"
     inkscape:groupmode="layer"
     id="layer1"
     transform="translate(-103.20395,-101.99819)"><g
       id="g151"
       transform="matrix(0.26458333,0,0,0.26458333,56.074575,144.79589)">
</g><g
       id="g153"
       transform="matrix(0.26458333,0,0,0.26458333,56.074575,144.79589)">
</g><g
       id="g155"
       transform="matrix(0.26458333,0,0,0.26458333,56.074575,144.79589)">
</g><g
       id="g157"
       transform="matrix(0.26458333,0,0,0.26458333,56.074575,144.79589)">
</g><g
       id="g159"
       transform="matrix(0.26458333,0,0,0.26458333,56.074575,144.79589)">
</g><g
       id="g161"
       transform="matrix(0.26458333,0,0,0.26458333,56.074575,144.79589)">
</g><g
       id="g1070"
       transform="matrix(1.011322,0,0,0.74587303,63.415189,25.920491)"><path
         style="fill:#5382a1;stroke-width:0.205978"
         d="m 57.495273,161.09838 c 0,0 -2.920354,1.69829 2.078316,2.27296 6.055748,0.69085 9.150772,0.59178 15.824248,-0.67128 0,0 1.754519,1.10013 4.204831,2.05298 -14.96017,6.41168 -33.857813,-0.37137 -22.107395,-3.65466"
         id="path1005" /><path
         style="fill:#5382a1;stroke-width:0.205978"
         d="m 55.667219,152.73156 c 0,0 -3.275459,2.42456 1.726918,2.94198 6.468941,0.66737 11.577603,0.72195 20.417554,-0.98025 0,0 1.222684,1.23958 3.145281,1.91745 -18.087738,5.2891 -38.234224,0.4171 -25.289753,-3.87918"
         id="path1007" /><path
         style="fill:#f8981d;stroke-width:0.205978"
         d="m 71.078275,138.53866 c 3.68618,4.24396 -0.968508,8.063 -0.968508,8.063 0,0 9.359839,-4.83183 5.061288,-10.88243 -4.014714,-5.64256 -7.093465,-8.44612 9.573644,-18.11245 0,0 -26.161863,6.53402 -13.666424,20.93188"
         id="path1009" /><path
         style="fill:#5382a1;stroke-width:0.205978"
         d="m 90.864301,167.28698 c 0,0 2.161119,1.78068 -2.380074,3.15826 -8.635209,2.61592 -35.940662,3.40584 -43.526002,0.10423 -2.726734,-1.18623 2.386666,-2.83241 3.995147,-3.17783 1.677483,-0.36376 2.636104,-0.29599 2.636104,-0.29599 -3.032406,-2.1362 -19.600233,4.19453 -8.415637,6.00755 30.502023,4.94656 55.602276,-2.22745 47.690462,-5.79622"
         id="path1011" /><path
         style="fill:#5382a1;stroke-width:0.205978"
         d="m 58.89963,144.06257 c 0,0 -13.889292,3.29894 -4.918545,4.49691 3.787726,0.50711 11.338462,0.39239 18.371781,-0.19692 5.748018,-0.48487 11.519723,-1.51579 11.519723,-1.51579 0,0 -2.026822,0.86799 -3.493178,1.86925 -14.104333,3.70946 -41.351288,1.98377 -33.50724,-1.81054 6.633723,-3.20667 12.027459,-2.84291 12.027459,-2.84291"
         id="path1013" /><path
         style="fill:#5382a1;stroke-width:0.205978"
         d="m 83.815327,157.98955 c 14.337705,-7.45042 7.708515,-14.61021 3.081428,-13.64562 -1.134114,0.23606 -1.639789,0.44059 -1.639789,0.44059 0,0 0.421019,-0.65954 1.225156,-0.94502 9.153861,-3.2182 16.193768,9.49166 -2.954958,14.52555 0,2.1e-4 0.221838,-0.19815 0.288163,-0.3755"
         id="path1015" /><path
         style="fill:#f8981d;stroke-width:0.205978"
         d="m 75.171055,101.99819 c 0,0 7.940446,7.94312 -7.531168,20.1574 -12.406663,9.79795 -2.829105,15.38448 -0.0051,21.76733 -7.241975,-6.53403 -12.556615,-12.28596 -8.991139,-17.63933 5.233279,-7.85826 19.731235,-11.66823 16.527456,-24.2854"
         id="path1017" /><path
         style="fill:#5382a1;stroke-width:0.205978"
         d="m 60.308518,178.17847 c 13.762409,0.88097 34.896148,-0.48878 35.396674,-7.00077 0,0 -0.962123,2.46864 -11.373891,4.42914 -11.746504,2.21055 -26.234161,1.95246 -34.826939,0.53575 2.06e-4,-2.1e-4 1.759051,1.45585 10.804156,2.03588"
         id="path1019" /></g></g></svg>
